# xmcd CD database file
#
# Track frame offsets:
#	150
#	18075
#	37300
#	44312
#	61975
#	80100
#	96562
#	110375
#	123600
#	145862
#	161962
#	181500
#	198595
#
# Disc length: 2894 seconds
#
# Revision: 0
# Processed by: cddbd v1.4PL0 Copyright (c) Steve Scherf et al.
# Submitted via: Feurio! 1.65 - http://www.feurio.com
#
DISCID=ba0b4c0d
DTITLE=Peter Schneider - Souled Out
DYEAR=1900
DGENRE=blues
TTITLE0=Play My Guitar
TTITLE1=Endless Love
TTITLE2=Telephone
TTITLE3=Why
TTITLE4=Fire
TTITLE5=Heaven Must Be
TTITLE6=Place In My Heart
TTITLE7=Mind Blow
TTITLE8=Ladder Of Love
TTITLE9=Souled Out
TTITLE10=People Get Together
TTITLE11=Take Me Back
TTITLE12=Fire Of Love
EXTD=ARD  CPS 5005
EXTT0=
EXTT1=
EXTT2=
EXTT3=
EXTT4=
EXTT5=
EXTT6=
EXTT7=
EXTT8=
EXTT9=
EXTT10=
EXTT11=
EXTT12=
PLAYORDER=
